<svg xmlns="http://www.w3.org/2000/svg" xmlns:xlink="http://www.w3.org/1999/xlink" width="500" zoomAndPan="magnify" viewBox="0 0 375 374.999991" height="500" preserveAspectRatio="xMidYMid meet" version="1.0"><defs><g/><clipPath id="e1a561976b"><path d="M 223.324219 70.980469 L 245.425781 70.980469 L 245.425781 93.082031 L 223.324219 93.082031 Z M 223.324219 70.980469 " clip-rule="nonzero"/></clipPath><clipPath id="164ac73057">
<path d="M 234.375 70.980469 C 228.273438 70.980469 223.324219 75.929688 223.324219 82.03125 C 223.324219 88.132812 228.273438 93.082031 234.375 93.082031 C 240.476562 93.082031 245.425781 88.132812 245.425781 82.03125 C 245.425781 75.929688 240.476562 70.980469 234.375 70.980469 Z M 234.375 70.980469 " clip-rule="nonzero"/></clipPath></defs><rect x="-37.5" width="450" fill="#ffffff" y="-37.499999" height="449.999989" fill-opacity="1"/><rect x="-37.5" width="450" fill="#f5f5f7" y="-37.499999" height="449.999989" fill-opacity="1"/><g fill="#217b7a" fill-opacity="1"><g transform="translate(50.639118, 164.490457)"><g><path d="M 102.421875 0 L 18.484375 -111.515625 L 28.203125 -111.515625 L 107.84375 -5.890625 L 107.84375 0 Z M 107.84375 -14.34375 L 105.609375 -17.203125 L 105.609375 -111.515625 L 107.84375 -111.515625 Z M 17.515625 0 L 17.515625 -104.34375 L 19.75 -101.3125 L 19.75 0 Z M 17.515625 0 "/></g></g></g><path stroke-linecap="butt" transform="matrix(0.835465, 0, 0, 0.835465, 131.757008, 0.763271)" fill="none" stroke-linejoin="miter" d="M 82.468125 62.159437 C 69.881573 62.159437 58.97354 64.988138 49.744026 70.640865 C 40.509836 76.298268 33.412367 84.129796 28.437593 94.140126 C 23.495548 104.113051 21.026863 115.661633 21.026863 128.776521 C 21.026863 141.765169 23.434766 153.173485 28.250572 162.992118 C 33.099106 172.782697 39.906691 180.506688 48.668652 186.16409 C 57.463341 191.821493 67.721474 194.972806 79.438376 195.627382 L 79.438376 197.909045 C 69.647796 197.661241 60.572575 195.753621 52.21271 192.176834 C 43.885575 188.604722 36.624462 183.737485 30.443399 177.584476 C 24.29039 171.398737 19.516664 164.175029 16.131574 155.908675 C 12.774536 147.642322 11.096018 138.721393 11.096018 129.150564 C 11.096018 119.359985 12.835318 110.29879 16.318595 101.971654 C 19.829925 93.61179 24.753268 86.322624 31.093299 80.104157 C 37.466059 73.857636 44.989002 69.027804 53.657452 65.60531 C 62.330577 62.159437 71.807896 60.434163 82.094082 60.434163 C 92.291433 60.434163 101.45549 62.065926 109.60028 65.329453 C 117.745069 68.56025 123.785866 72.97396 127.736697 78.565905 L 125.076315 78.565905 C 121.504203 73.348003 115.954338 69.308337 108.43607 66.446907 C 100.945856 63.585477 92.291433 62.159437 82.468125 62.159437 Z M 117.431808 91.947298 C 117.431808 89.773172 118.161192 88.015169 119.624636 86.677965 C 121.083404 85.340761 122.902189 84.676834 125.076315 84.676834 C 127.096148 84.676834 128.774666 85.340761 130.111871 86.677965 C 131.449075 88.015169 132.117677 89.773172 132.117677 91.947298 C 132.117677 93.967131 131.449075 95.678378 130.111871 97.076365 C 128.774666 98.474351 127.096148 99.171006 125.076315 99.171006 C 122.902189 99.171006 121.083404 98.474351 119.624636 97.076365 C 118.161192 95.678378 117.431808 93.967131 117.431808 91.947298 Z M 125.637379 139.497533 L 135.00716 139.497533 L 135.00716 196.001425 L 133.094865 196.001425 L 125.450358 182.620031 C 121.625767 186.81399 116.281625 190.297267 109.413258 193.065186 C 102.544891 195.795701 94.839602 197.352656 86.292716 197.726699 L 86.292716 195.814403 C 95.709252 195.5666 103.882095 193.682357 110.811244 190.171027 C 117.773122 186.659697 122.715167 182.04494 125.637379 176.326756 Z M 125.637379 139.497533 " stroke="#f8f8f8" stroke-width="4.77385" stroke-opacity="1" stroke-miterlimit="4"/><g fill="#4fc8dc" fill-opacity="1"><g transform="translate(131.757008, 164.514435)"><g><path d="M 68.921875 -111.828125 C 58.390625 -111.828125 49.265625 -109.460938 41.546875 -104.734375 C 33.835938 -100.003906 27.910156 -93.460938 23.765625 -85.109375 C 19.617188 -76.765625 17.546875 -67.113281 17.546875 -56.15625 C 17.546875 -45.3125 19.566406 -35.789062 23.609375 -27.59375 C 27.648438 -19.40625 33.335938 -12.941406 40.671875 -8.203125 C 48.015625 -3.472656 56.578125 -0.84375 66.359375 -0.3125 L 66.359375 1.59375 C 58.171875 1.382812 50.59375 -0.207031 43.625 -3.1875 C 36.664062 -6.164062 30.601562 -10.234375 25.4375 -15.390625 C 20.28125 -20.546875 16.289062 -26.582031 13.46875 -33.5 C 10.65625 -40.414062 9.25 -47.863281 9.25 -55.84375 C 9.25 -64.03125 10.710938 -71.601562 13.640625 -78.5625 C 16.566406 -85.53125 20.6875 -91.617188 26 -96.828125 C 31.320312 -102.046875 37.597656 -106.085938 44.828125 -108.953125 C 52.054688 -111.828125 59.976562 -113.265625 68.59375 -113.265625 C 77.101562 -113.265625 84.757812 -111.90625 91.5625 -109.1875 C 98.375 -106.476562 103.425781 -102.785156 106.71875 -98.109375 L 104.5 -98.109375 C 101.519531 -102.472656 96.890625 -105.847656 90.609375 -108.234375 C 84.335938 -110.628906 77.109375 -111.828125 68.921875 -111.828125 Z M 98.109375 -86.9375 C 98.109375 -88.75 98.71875 -90.210938 99.9375 -91.328125 C 101.164062 -92.441406 102.6875 -93 104.5 -93 C 106.195312 -93 107.601562 -92.441406 108.71875 -91.328125 C 109.832031 -90.210938 110.390625 -88.75 110.390625 -86.9375 C 110.390625 -85.238281 109.832031 -83.800781 108.71875 -82.625 C 107.601562 -81.457031 106.195312 -80.875 104.5 -80.875 C 102.6875 -80.875 101.164062 -81.457031 99.9375 -82.625 C 98.71875 -83.800781 98.109375 -85.238281 98.109375 -86.9375 Z M 104.96875 -47.21875 L 112.78125 -47.21875 L 112.78125 0 L 111.1875 0 L 104.8125 -11.171875 C 101.625 -7.660156 97.15625 -4.757812 91.40625 -2.46875 C 85.664062 -0.1875 79.234375 1.113281 72.109375 1.4375 L 72.109375 -0.15625 C 79.972656 -0.375 86.800781 -1.941406 92.59375 -4.859375 C 98.394531 -7.785156 102.519531 -11.644531 104.96875 -16.4375 Z M 104.96875 -47.21875 "/></g></g></g><path stroke-linecap="butt" transform="matrix(0.835465, 0, 0, 0.835465, 135.067539, 108.0678)" fill="none" stroke-linejoin="miter" d="M 30.160548 62.346648 L 30.160548 127.238458 L 112.258343 127.238458 L 112.258343 129.150753 L 30.160548 129.150753 L 30.160548 196.001614 L 21.024545 196.001614 L 21.024545 62.346648 Z M 119.159439 62.346648 L 128.342198 62.346648 L 128.342198 196.001614 L 119.159439 196.001614 Z M 119.159439 62.346648 " stroke="#f8f8f8" stroke-width="4.77385" stroke-opacity="1" stroke-miterlimit="4"/><g fill="#217b7a" fill-opacity="1"><g transform="translate(135.067539, 271.818964)"><g><path d="M 25.203125 -111.671875 L 25.203125 -57.4375 L 93.796875 -57.4375 L 93.796875 -55.84375 L 25.203125 -55.84375 L 25.203125 0 L 17.546875 0 L 17.546875 -111.671875 Z M 99.546875 -111.671875 L 107.203125 -111.671875 L 107.203125 0 L 99.546875 0 Z M 99.546875 -111.671875 "/></g></g></g><path stroke-linecap="butt" transform="matrix(0.835465, 0, 0, 0.835465, 220.90937, 108.0678)" fill="none" stroke-linejoin="miter" d="M 21.026841 196.001614 L 21.026841 62.346648 L 30.162845 62.346648 L 30.162845 196.001614 Z M 114.589058 181.502767 C 116.482651 184.424979 118.675479 187.220951 121.162866 189.890684 C 123.650253 192.565093 125.899188 194.603628 127.923696 196.001614 L 116.080555 196.001614 C 111.634117 192.551066 108.076032 188.852715 105.406299 184.90656 L 82.281082 148.820747 C 80.261249 145.529168 78.288171 143.088536 76.361849 141.503528 C 74.46358 139.885792 71.854629 138.642098 68.53032 137.772448 L 37.063941 137.772448 L 37.063941 135.860152 L 69.69453 135.860152 C 81.411431 135.860152 90.767185 132.643381 97.757117 126.209839 C 104.751723 119.776297 108.249027 111.215385 108.249027 100.527102 C 108.249027 89.58634 104.751723 80.805677 97.757117 74.185114 C 90.767185 67.56455 81.411431 64.254268 69.69453 64.254268 L 37.063941 64.254268 L 37.063941 62.346648 L 70.858739 62.346648 C 79.873179 62.346648 87.938484 64.006465 95.054655 67.330773 C 102.203554 70.627028 107.842255 75.101519 111.980107 80.758922 C 116.113284 86.416324 118.179872 92.87792 118.179872 100.153059 C 118.179872 106.773622 116.328359 112.786366 112.630007 118.191289 C 108.964384 123.600888 103.942855 128.028624 97.574771 131.479172 C 91.202011 134.896991 83.945574 136.935526 75.800784 137.585426 C 79.625375 138.455077 83.029168 139.69877 86.012162 141.316507 C 89.027885 142.901515 91.356303 144.968103 93.002093 147.516272 Z M 114.589058 181.502767 " stroke="#f8f8f8" stroke-width="4.77385" stroke-opacity="1" stroke-miterlimit="4"/><g fill="#4fc8dc" fill-opacity="1"><g transform="translate(220.90937, 271.818964)"><g><path d="M 17.546875 0 L 17.546875 -111.671875 L 25.203125 -111.671875 L 25.203125 0 Z M 95.71875 -12.125 C 97.3125 -9.675781 99.144531 -7.332031 101.21875 -5.09375 C 103.289062 -2.863281 105.179688 -1.164062 106.890625 0 L 97 0 C 93.269531 -2.875 90.289062 -5.957031 88.0625 -9.25 L 68.765625 -39.40625 C 67.054688 -42.164062 65.40625 -44.210938 63.8125 -45.546875 C 62.21875 -46.878906 60.035156 -47.914062 57.265625 -48.65625 L 30.953125 -48.65625 L 30.953125 -50.25 L 58.234375 -50.25 C 68.015625 -50.25 75.828125 -52.929688 81.671875 -58.296875 C 87.523438 -63.671875 90.453125 -70.828125 90.453125 -79.765625 C 90.453125 -88.910156 87.523438 -96.25 81.671875 -101.78125 C 75.828125 -107.3125 68.015625 -110.078125 58.234375 -110.078125 L 30.953125 -110.078125 L 30.953125 -111.671875 L 59.1875 -111.671875 C 66.738281 -111.671875 73.488281 -110.285156 79.4375 -107.515625 C 85.394531 -104.753906 90.101562 -101.003906 93.5625 -96.265625 C 97.019531 -91.535156 98.75 -86.140625 98.75 -80.078125 C 98.75 -74.554688 97.207031 -69.535156 94.125 -65.015625 C 91.039062 -60.492188 86.835938 -56.796875 81.515625 -53.921875 C 76.203125 -51.046875 70.140625 -49.34375 63.328125 -48.8125 C 66.523438 -48.070312 69.375 -47.035156 71.875 -45.703125 C 74.375 -44.378906 76.3125 -42.648438 77.6875 -40.515625 Z M 95.71875 -12.125 "/></g></g></g><g clip-path="url(#e1a561976b)"><g clip-path="url(#164ac73057)"><path fill="#f5f5f7" d="M 223.324219 70.980469 L 245.425781 70.980469 L 245.425781 93.082031 L 223.324219 93.082031 Z M 223.324219 70.980469 " fill-opacity="1" fill-rule="nonzero"/></g></g><g fill="#1d1d1f" fill-opacity="1"><g transform="translate(40.16309, 318.750659)"><g><path d="M 26.359375 -35.21875 L 33.8125 -35.21875 L 33.8125 0 L 27.46875 0 L 11.515625 -21.984375 L 11.515625 0 L 4.03125 0 L 4.03125 -35.21875 L 10.921875 -35.21875 L 26.359375 -13.734375 Z M 26.359375 -35.21875 "/></g></g></g><g fill="#1d1d1f" fill-opacity="1"><g transform="translate(77.996749, 318.750659)"><g><path d="M 29.890625 -13.6875 C 29.890625 -12.976562 29.835938 -12.253906 29.734375 -11.515625 L 9.203125 -11.515625 C 9.503906 -9.671875 10.242188 -8.253906 11.421875 -7.265625 C 12.597656 -6.273438 14.070312 -5.78125 15.84375 -5.78125 C 17.125 -5.78125 18.265625 -6.054688 19.265625 -6.609375 C 20.273438 -7.171875 21.046875 -7.9375 21.578125 -8.90625 L 29.328125 -8.90625 C 28.328125 -5.957031 26.617188 -3.609375 24.203125 -1.859375 C 21.785156 -0.117188 19 0.75 15.84375 0.75 C 13.164062 0.75 10.757812 0.125 8.625 -1.125 C 6.5 -2.382812 4.820312 -4.097656 3.59375 -6.265625 C 2.375 -8.429688 1.765625 -10.867188 1.765625 -13.578125 C 1.765625 -16.296875 2.375 -18.738281 3.59375 -20.90625 C 4.820312 -23.070312 6.5 -24.78125 8.625 -26.03125 C 10.757812 -27.289062 13.164062 -27.921875 15.84375 -27.921875 C 18.632812 -27.921875 21.082031 -27.273438 23.1875 -25.984375 C 25.300781 -24.691406 26.945312 -22.972656 28.125 -20.828125 C 29.300781 -18.679688 29.890625 -16.300781 29.890625 -13.6875 Z M 15.84375 -21.6875 C 14.207031 -21.6875 12.828125 -21.234375 11.703125 -20.328125 C 10.578125 -19.421875 9.8125 -18.160156 9.40625 -16.546875 L 22.546875 -16.546875 C 21.472656 -19.972656 19.238281 -21.6875 15.84375 -21.6875 Z M 15.84375 -21.6875 "/></g></g></g><g fill="#1d1d1f" fill-opacity="1"><g transform="translate(109.591878, 318.750659)"><g><path d="M 27.375 0 L 19.0625 0 L 13.6875 -9 L 8.15625 0 L 0.046875 0 L 9.3125 -13.9375 L 0.65625 -27.171875 L 8.953125 -27.171875 L 13.6875 -19.3125 L 18.71875 -27.171875 L 26.8125 -27.171875 L 18.015625 -14.34375 Z M 27.375 0 "/></g></g></g><g fill="#1d1d1f" fill-opacity="1"><g transform="translate(137.011225, 318.750659)"><g/></g></g><g fill="#1d1d1f" fill-opacity="1"><g transform="translate(149.035493, 318.750659)"><g><path d="M 19.46875 -18.421875 L 38.234375 -18.421875 C 38.203125 -15.628906 37.75 -13.066406 36.875 -10.734375 C 36.007812 -8.410156 34.78125 -6.390625 33.1875 -4.671875 C 31.59375 -2.960938 29.695312 -1.628906 27.5 -0.671875 C 25.300781 0.273438 22.875 0.75 20.21875 0.75 C 17.644531 0.75 15.25 0.296875 13.03125 -0.609375 C 10.8125 -1.515625 8.875 -2.785156 7.21875 -4.421875 C 5.5625 -6.066406 4.28125 -8.015625 3.375 -10.265625 C 2.46875 -12.515625 2.015625 -14.945312 2.015625 -17.5625 C 2.015625 -20.207031 2.457031 -22.644531 3.34375 -24.875 C 4.226562 -27.101562 5.484375 -29.046875 7.109375 -30.703125 C 8.742188 -32.367188 10.664062 -33.660156 12.875 -34.578125 C 15.09375 -35.503906 17.492188 -35.96875 20.078125 -35.96875 C 22.992188 -35.96875 25.691406 -35.394531 28.171875 -34.25 C 30.648438 -33.113281 32.726562 -31.539062 34.40625 -29.53125 C 36.082031 -27.519531 37.191406 -25.191406 37.734375 -22.546875 L 29.890625 -22.546875 C 29.148438 -24.453125 27.90625 -25.957031 26.15625 -27.0625 C 24.414062 -28.175781 22.4375 -28.734375 20.21875 -28.734375 C 18.144531 -28.734375 16.316406 -28.253906 14.734375 -27.296875 C 13.160156 -26.335938 11.925781 -25.023438 11.03125 -23.359375 C 10.144531 -21.703125 9.703125 -19.769531 9.703125 -17.5625 C 9.703125 -15.375 10.140625 -13.453125 11.015625 -11.796875 C 11.890625 -10.140625 13.113281 -8.835938 14.6875 -7.890625 C 16.269531 -6.953125 18.113281 -6.484375 20.21875 -6.484375 C 22.5 -6.484375 24.546875 -7.035156 26.359375 -8.140625 C 28.171875 -9.253906 29.394531 -10.71875 30.03125 -12.53125 L 19.46875 -12.53125 Z M 19.46875 -18.421875 "/></g></g></g><g fill="#1d1d1f" fill-opacity="1"><g transform="translate(189.13314, 318.750659)"><g><path d="M 29.890625 -13.6875 C 29.890625 -12.976562 29.835938 -12.253906 29.734375 -11.515625 L 9.203125 -11.515625 C 9.503906 -9.671875 10.242188 -8.253906 11.421875 -7.265625 C 12.597656 -6.273438 14.070312 -5.78125 15.84375 -5.78125 C 17.125 -5.78125 18.265625 -6.054688 19.265625 -6.609375 C 20.273438 -7.171875 21.046875 -7.9375 21.578125 -8.90625 L 29.328125 -8.90625 C 28.328125 -5.957031 26.617188 -3.609375 24.203125 -1.859375 C 21.785156 -0.117188 19 0.75 15.84375 0.75 C 13.164062 0.75 10.757812 0.125 8.625 -1.125 C 6.5 -2.382812 4.820312 -4.097656 3.59375 -6.265625 C 2.375 -8.429688 1.765625 -10.867188 1.765625 -13.578125 C 1.765625 -16.296875 2.375 -18.738281 3.59375 -20.90625 C 4.820312 -23.070312 6.5 -24.78125 8.625 -26.03125 C 10.757812 -27.289062 13.164062 -27.921875 15.84375 -27.921875 C 18.632812 -27.921875 21.082031 -27.273438 23.1875 -25.984375 C 25.300781 -24.691406 26.945312 -22.972656 28.125 -20.828125 C 29.300781 -18.679688 29.890625 -16.300781 29.890625 -13.6875 Z M 15.84375 -21.6875 C 14.207031 -21.6875 12.828125 -21.234375 11.703125 -20.328125 C 10.578125 -19.421875 9.8125 -18.160156 9.40625 -16.546875 L 22.546875 -16.546875 C 21.472656 -19.972656 19.238281 -21.6875 15.84375 -21.6875 Z M 15.84375 -21.6875 "/></g></g></g><g fill="#1d1d1f" fill-opacity="1"><g transform="translate(220.72827, 318.750659)"><g><path d="M 19.015625 -27.828125 C 22.097656 -27.828125 24.535156 -26.796875 26.328125 -24.734375 C 28.128906 -22.671875 29.03125 -19.910156 29.03125 -16.453125 L 29.03125 0 L 21.6875 0 L 21.6875 -15.296875 C 21.6875 -19.359375 20.109375 -21.390625 16.953125 -21.390625 C 15.078125 -21.390625 13.59375 -20.75 12.5 -19.46875 C 11.414062 -18.195312 10.875 -16.46875 10.875 -14.28125 L 10.875 0 L 3.515625 0 L 3.515625 -27.171875 L 8.546875 -27.171875 L 10.015625 -23.796875 C 11.015625 -25.035156 12.300781 -26.015625 13.875 -26.734375 C 15.457031 -27.460938 17.171875 -27.828125 19.015625 -27.828125 Z M 19.015625 -27.828125 "/></g></g></g><g fill="#1d1d1f" fill-opacity="1"><g transform="translate(252.977446, 318.750659)"><g/></g></g><g fill="#1d1d1f" fill-opacity="1"><g transform="translate(265.001726, 318.750659)"><g><path d="M 24.90625 -35.21875 L 32.5 -35.21875 L 32.5 0 L 24.90625 0 L 24.90625 -14.546875 L 11.671875 -14.546875 L 11.671875 0 L 4.03125 0 L 4.03125 -35.21875 L 11.671875 -35.21875 L 11.671875 -21.640625 L 24.90625 -21.640625 Z M 24.90625 -35.21875 "/></g></g></g><g fill="#1d1d1f" fill-opacity="1"><g transform="translate(301.577623, 318.750659)"><g><path d="M 23.390625 0 L 16.546875 -12.03125 L 11.671875 -12.03125 L 11.671875 0 L 4.03125 0 L 4.03125 -35.21875 L 18.265625 -35.21875 C 20.609375 -35.21875 22.703125 -34.710938 24.546875 -33.703125 C 26.390625 -32.703125 27.847656 -31.328125 28.921875 -29.578125 C 30.003906 -27.835938 30.546875 -25.828125 30.546875 -23.546875 C 30.546875 -21.265625 29.960938 -19.222656 28.796875 -17.421875 C 27.640625 -15.628906 26.09375 -14.265625 24.15625 -13.328125 L 31.953125 0 Z M 11.671875 -28.171875 L 11.671875 -19.0625 L 17.765625 -19.0625 C 19.335938 -19.0625 20.578125 -19.488281 21.484375 -20.34375 C 22.390625 -21.207031 22.84375 -22.289062 22.84375 -23.59375 C 22.84375 -24.9375 22.390625 -26.035156 21.484375 -26.890625 C 20.578125 -27.742188 19.335938 -28.171875 17.765625 -28.171875 Z M 11.671875 -28.171875 "/></g></g></g><g fill="#1d1d1f" fill-opacity="1"><g transform="translate(78.32558, 354.381138)"><g><path d="M 11.734375 0.015625 L 10.296875 0.015625 L 7.5625 -5.375 L 3.1875 -5.375 L 3.1875 0 L 1.90625 0 L 1.90625 -13.421875 L 7.296875 -13.421875 C 8.640625 -13.421875 9.707031 -13.070312 10.5 -12.375 C 11.300781 -11.675781 11.703125 -10.65625 11.703125 -9.3125 C 11.703125 -8.300781 11.457031 -7.472656 10.96875 -6.828125 C 10.476562 -6.191406 9.769531 -5.765625 8.84375 -5.546875 Z M 3.1875 -12.25 L 3.1875 -6.53125 L 7.40625 -6.53125 C 9.414062 -6.53125 10.421875 -7.445312 10.421875 -9.28125 C 10.421875 -10.195312 10.171875 -10.921875 9.671875 -11.453125 C 9.171875 -11.984375 8.414062 -12.25 7.40625 -12.25 Z M 3.1875 -12.25 "/></g></g></g><g fill="#1d1d1f" fill-opacity="1"><g transform="translate(91.163067, 354.381138)"><g><path d="M 9.6875 -5.078125 C 9.6875 -4.929688 9.6875 -4.816406 9.6875 -4.734375 C 9.6875 -4.648438 9.679688 -4.5625 9.671875 -4.46875 L 2.09375 -4.46875 C 2.164062 -3.78125 2.316406 -3.164062 2.546875 -2.625 C 2.785156 -2.082031 3.132812 -1.648438 3.59375 -1.328125 C 4.050781 -1.015625 4.628906 -0.859375 5.328125 -0.859375 C 6.171875 -0.859375 6.859375 -1.070312 7.390625 -1.5 C 7.921875 -1.9375 8.242188 -2.554688 8.359375 -3.359375 L 9.53125 -3.359375 C 9.414062 -2.535156 9.148438 -1.863281 8.734375 -1.34375 C 8.328125 -0.820312 7.828125 -0.4375 7.234375 -0.1875 C 6.648438 0.0625 6.015625 0.1875 5.328125 0.1875 C 4.535156 0.1875 3.859375 0.0390625 3.296875 -0.25 C 2.734375 -0.539062 2.273438 -0.929688 1.921875 -1.421875 C 1.578125 -1.921875 1.320312 -2.476562 1.15625 -3.09375 C 1 -3.71875 0.921875 -4.359375 0.921875 -5.015625 C 0.921875 -5.640625 0.992188 -6.253906 1.140625 -6.859375 C 1.285156 -7.460938 1.53125 -8.015625 1.875 -8.515625 C 2.21875 -9.015625 2.671875 -9.410156 3.234375 -9.703125 C 3.796875 -10.003906 4.492188 -10.15625 5.328125 -10.15625 C 6.222656 -10.15625 6.953125 -9.988281 7.515625 -9.65625 C 8.078125 -9.320312 8.515625 -8.894531 8.828125 -8.375 C 9.148438 -7.851562 9.375 -7.296875 9.5 -6.703125 C 9.625 -6.117188 9.6875 -5.578125 9.6875 -5.078125 Z M 5.328125 -9.109375 C 4.523438 -9.109375 3.890625 -8.921875 3.421875 -8.546875 C 2.953125 -8.179688 2.617188 -7.722656 2.421875 -7.171875 C 2.222656 -6.617188 2.109375 -6.070312 2.078125 -5.53125 L 8.5 -5.53125 C 8.4375 -6.601562 8.148438 -7.46875 7.640625 -8.125 C 7.140625 -8.78125 6.367188 -9.109375 5.328125 -9.109375 Z M 5.328125 -9.109375 "/></g></g></g><g fill="#1d1d1f" fill-opacity="1"><g transform="translate(101.763719, 354.381138)"><g><path d="M 5.21875 0.21875 C 4.1875 0.21875 3.359375 -0.0078125 2.734375 -0.46875 C 2.109375 -0.9375 1.648438 -1.566406 1.359375 -2.359375 C 1.066406 -3.148438 0.921875 -4.023438 0.921875 -4.984375 C 0.921875 -5.941406 1.066406 -6.8125 1.359375 -7.59375 C 1.648438 -8.375 2.113281 -8.992188 2.75 -9.453125 C 3.382812 -9.921875 4.210938 -10.15625 5.234375 -10.15625 C 5.835938 -10.15625 6.441406 -10.039062 7.046875 -9.8125 C 7.660156 -9.582031 8.210938 -9.144531 8.703125 -8.5 L 8.703125 -13.421875 L 9.859375 -13.421875 L 9.859375 0 L 8.703125 0 L 8.703125 -1.375 C 8.179688 -0.738281 7.628906 -0.3125 7.046875 -0.09375 C 6.472656 0.113281 5.863281 0.21875 5.21875 0.21875 Z M 5.5 -0.796875 C 6.53125 -0.796875 7.335938 -1.175781 7.921875 -1.9375 C 8.503906 -2.707031 8.796875 -3.722656 8.796875 -4.984375 C 8.796875 -6.210938 8.503906 -7.207031 7.921875 -7.96875 C 7.335938 -8.726562 6.53125 -9.109375 5.5 -9.109375 C 4.320312 -9.109375 3.457031 -8.726562 2.90625 -7.96875 C 2.351562 -7.207031 2.078125 -6.210938 2.078125 -4.984375 C 2.078125 -3.722656 2.351562 -2.707031 2.90625 -1.9375 C 3.457031 -1.175781 4.320312 -0.796875 5.5 -0.796875 Z M 5.5 -0.796875 "/></g></g></g><g fill="#1d1d1f" fill-opacity="1"><g transform="translate(113.025696, 354.381138)"><g><path d="M 9.6875 -5.078125 C 9.6875 -4.929688 9.6875 -4.816406 9.6875 -4.734375 C 9.6875 -4.648438 9.679688 -4.5625 9.671875 -4.46875 L 2.09375 -4.46875 C 2.164062 -3.78125 2.316406 -3.164062 2.546875 -2.625 C 2.785156 -2.082031 3.132812 -1.648438 3.59375 -1.328125 C 4.050781 -1.015625 4.628906 -0.859375 5.328125 -0.859375 C 6.171875 -0.859375 6.859375 -1.070312 7.390625 -1.5 C 7.921875 -1.9375 8.242188 -2.554688 8.359375 -3.359375 L 9.53125 -3.359375 C 9.414062 -2.535156 9.148438 -1.863281 8.734375 -1.34375 C 8.328125 -0.820312 7.828125 -0.4375 7.234375 -0.1875 C 6.648438 0.0625 6.015625 0.1875 5.328125 0.1875 C 4.535156 0.1875 3.859375 0.0390625 3.296875 -0.25 C 2.734375 -0.539062 2.273438 -0.929688 1.921875 -1.421875 C 1.578125 -1.921875 1.320312 -2.476562 1.15625 -3.09375 C 1 -3.71875 0.921875 -4.359375 0.921875 -5.015625 C 0.921875 -5.640625 0.992188 -6.253906 1.140625 -6.859375 C 1.285156 -7.460938 1.53125 -8.015625 1.875 -8.515625 C 2.21875 -9.015625 2.671875 -9.410156 3.234375 -9.703125 C 3.796875 -10.003906 4.492188 -10.15625 5.328125 -10.15625 C 6.222656 -10.15625 6.953125 -9.988281 7.515625 -9.65625 C 8.078125 -9.320312 8.515625 -8.894531 8.828125 -8.375 C 9.148438 -7.851562 9.375 -7.296875 9.5 -6.703125 C 9.625 -6.117188 9.6875 -5.578125 9.6875 -5.078125 Z M 5.328125 -9.109375 C 4.523438 -9.109375 3.890625 -8.921875 3.421875 -8.546875 C 2.953125 -8.179688 2.617188 -7.722656 2.421875 -7.171875 C 2.222656 -6.617188 2.109375 -6.070312 2.078125 -5.53125 L 8.5 -5.53125 C 8.4375 -6.601562 8.148438 -7.46875 7.640625 -8.125 C 7.140625 -8.78125 6.367188 -9.109375 5.328125 -9.109375 Z M 5.328125 -9.109375 "/></g></g></g><g fill="#1d1d1f" fill-opacity="1"><g transform="translate(123.626348, 354.381138)"><g><path d="M 2.140625 0 L 2.140625 -8.90625 L 0.296875 -8.90625 L 0.296875 -9.953125 L 2.140625 -9.953125 L 2.140625 -10.578125 C 2.140625 -11.453125 2.390625 -12.144531 2.890625 -12.65625 C 3.398438 -13.164062 4.085938 -13.421875 4.953125 -13.421875 L 6.015625 -13.421875 L 6.015625 -12.375 L 4.953125 -12.375 C 4.460938 -12.375 4.066406 -12.21875 3.765625 -11.90625 C 3.460938 -11.601562 3.3125 -11.195312 3.3125 -10.6875 L 3.3125 -9.953125 L 6.015625 -9.953125 L 6.015625 -8.90625 L 3.3125 -8.90625 L 3.3125 0 Z M 2.140625 0 "/></g></g></g><g fill="#1d1d1f" fill-opacity="1"><g transform="translate(129.928388, 354.381138)"><g><path d="M 1.40625 -11.609375 L 1.40625 -13.421875 L 2.84375 -13.421875 L 2.84375 -11.609375 Z M 1.53125 0 L 1.53125 -9.953125 L 2.703125 -9.953125 L 2.703125 0 Z M 1.53125 0 "/></g></g></g><g fill="#1d1d1f" fill-opacity="1"><g transform="translate(134.168652, 354.381138)"><g><path d="M 1.40625 0 L 1.40625 -9.953125 L 2.5625 -9.953125 L 2.5625 -8.578125 C 2.863281 -9.097656 3.28125 -9.488281 3.8125 -9.75 C 4.351562 -10.019531 4.925781 -10.15625 5.53125 -10.15625 C 6.5625 -10.15625 7.363281 -9.820312 7.9375 -9.15625 C 8.519531 -8.488281 8.8125 -7.585938 8.8125 -6.453125 L 8.8125 0 L 7.640625 0 L 7.640625 -6.34375 C 7.640625 -7.300781 7.445312 -8 7.0625 -8.4375 C 6.6875 -8.882812 6.164062 -9.109375 5.5 -9.109375 C 4.9375 -9.109375 4.429688 -8.96875 3.984375 -8.6875 C 3.535156 -8.40625 3.179688 -8.019531 2.921875 -7.53125 C 2.671875 -7.050781 2.546875 -6.492188 2.546875 -5.859375 L 2.546875 0 Z M 1.40625 0 "/></g></g></g><g fill="#1d1d1f" fill-opacity="1"><g transform="translate(144.341386, 354.381138)"><g><path d="M 1.40625 -11.609375 L 1.40625 -13.421875 L 2.84375 -13.421875 L 2.84375 -11.609375 Z M 1.53125 0 L 1.53125 -9.953125 L 2.703125 -9.953125 L 2.703125 0 Z M 1.53125 0 "/></g></g></g><g fill="#1d1d1f" fill-opacity="1"><g transform="translate(148.581649, 354.381138)"><g><path d="M 1.40625 0 L 1.40625 -9.953125 L 2.5625 -9.953125 L 2.5625 -8.578125 C 2.863281 -9.097656 3.28125 -9.488281 3.8125 -9.75 C 4.351562 -10.019531 4.925781 -10.15625 5.53125 -10.15625 C 6.5625 -10.15625 7.363281 -9.820312 7.9375 -9.15625 C 8.519531 -8.488281 8.8125 -7.585938 8.8125 -6.453125 L 8.8125 0 L 7.640625 0 L 7.640625 -6.34375 C 7.640625 -7.300781 7.445312 -8 7.0625 -8.4375 C 6.6875 -8.882812 6.164062 -9.109375 5.5 -9.109375 C 4.9375 -9.109375 4.429688 -8.96875 3.984375 -8.6875 C 3.535156 -8.40625 3.179688 -8.019531 2.921875 -7.53125 C 2.671875 -7.050781 2.546875 -6.492188 2.546875 -5.859375 L 2.546875 0 Z M 1.40625 0 "/></g></g></g><g fill="#1d1d1f" fill-opacity="1"><g transform="translate(158.754383, 354.381138)"><g><path d="M 8.96875 -9.953125 L 8.96875 -8.578125 L 7.59375 -8.578125 C 7.769531 -8.296875 7.910156 -7.988281 8.015625 -7.65625 C 8.128906 -7.320312 8.1875 -6.972656 8.1875 -6.609375 C 8.1875 -5.960938 8.023438 -5.375 7.703125 -4.84375 C 7.390625 -4.3125 6.96875 -3.890625 6.4375 -3.578125 C 5.90625 -3.265625 5.316406 -3.109375 4.671875 -3.109375 C 4.304688 -3.109375 3.953125 -3.160156 3.609375 -3.265625 C 3.273438 -3.378906 2.96875 -3.53125 2.6875 -3.71875 C 2.5 -3.507812 2.335938 -3.3125 2.203125 -3.125 C 2.078125 -2.945312 2.015625 -2.722656 2.015625 -2.453125 C 2.015625 -2.160156 2.164062 -1.914062 2.46875 -1.71875 C 2.78125 -1.519531 3.257812 -1.421875 3.90625 -1.421875 L 6.0625 -1.421875 C 6.875 -1.421875 7.53125 -1.226562 8.03125 -0.84375 C 8.539062 -0.457031 8.796875 0.160156 8.796875 1.015625 C 8.796875 1.867188 8.457031 2.515625 7.78125 2.953125 C 7.101562 3.398438 6.144531 3.625 4.90625 3.625 C 3.6875 3.625 2.710938 3.390625 1.984375 2.921875 C 1.253906 2.453125 0.898438 1.660156 0.921875 0.546875 L 1.5625 -0.953125 C 1.351562 -1.109375 1.191406 -1.296875 1.078125 -1.515625 C 0.972656 -1.734375 0.921875 -1.992188 0.921875 -2.296875 C 0.921875 -2.816406 1.019531 -3.226562 1.21875 -3.53125 C 1.425781 -3.832031 1.664062 -4.117188 1.9375 -4.390625 C 1.695312 -4.691406 1.503906 -5.03125 1.359375 -5.40625 C 1.210938 -5.78125 1.140625 -6.179688 1.140625 -6.609375 C 1.140625 -7.273438 1.296875 -7.875 1.609375 -8.40625 C 1.921875 -8.9375 2.34375 -9.359375 2.875 -9.671875 C 3.40625 -9.992188 4.003906 -10.15625 4.671875 -10.15625 C 5.160156 -10.15625 5.613281 -10.0625 6.03125 -9.875 C 6.457031 -9.6875 6.832031 -9.429688 7.15625 -9.109375 L 7.203125 -9.140625 C 7.734375 -9.679688 8.320312 -9.953125 8.96875 -9.953125 Z M 4.671875 -4.15625 C 5.316406 -4.15625 5.875 -4.382812 6.34375 -4.84375 C 6.8125 -5.300781 7.046875 -5.898438 7.046875 -6.640625 C 7.046875 -7.097656 6.9375 -7.507812 6.71875 -7.875 C 6.507812 -8.25 6.222656 -8.546875 5.859375 -8.765625 C 5.503906 -8.992188 5.109375 -9.109375 4.671875 -9.109375 C 4.242188 -9.109375 3.84375 -8.992188 3.46875 -8.765625 C 3.101562 -8.546875 2.804688 -8.25 2.578125 -7.875 C 2.359375 -7.507812 2.25 -7.097656 2.25 -6.640625 C 2.25 -5.898438 2.488281 -5.300781 2.96875 -4.84375 C 3.457031 -4.382812 4.023438 -4.15625 4.671875 -4.15625 Z M 5.9375 -0.375 L 3.859375 -0.375 C 3.316406 -0.375 2.84375 -0.429688 2.4375 -0.546875 L 1.984375 0.65625 C 1.984375 1.238281 2.238281 1.695312 2.75 2.03125 C 3.257812 2.375 3.925781 2.546875 4.75 2.546875 C 5.695312 2.546875 6.410156 2.425781 6.890625 2.1875 C 7.367188 1.945312 7.609375 1.5625 7.609375 1.03125 C 7.609375 0.644531 7.519531 0.347656 7.34375 0.140625 C 7.164062 -0.0546875 6.953125 -0.191406 6.703125 -0.265625 C 6.453125 -0.335938 6.195312 -0.375 5.9375 -0.375 Z M 5.9375 -0.375 "/></g></g></g><g fill="#1d1d1f" fill-opacity="1"><g transform="translate(168.324153, 354.381138)"><g/></g></g><g fill="#1d1d1f" fill-opacity="1"><g transform="translate(172.778369, 354.381138)"><g><path d="M 1.90625 0 L 1.90625 -13.421875 L 3.1875 -13.421875 L 3.1875 -7.28125 L 10.1875 -7.28125 L 10.1875 -13.421875 L 11.484375 -13.421875 L 11.484375 0 L 10.1875 0 L 10.1875 -6.140625 L 3.1875 -6.140625 L 3.1875 0 Z M 1.90625 0 "/></g></g></g><g fill="#1d1d1f" fill-opacity="1"><g transform="translate(186.160484, 354.381138)"><g><path d="M 11.734375 0.015625 L 10.296875 0.015625 L 7.5625 -5.375 L 3.1875 -5.375 L 3.1875 0 L 1.90625 0 L 1.90625 -13.421875 L 7.296875 -13.421875 C 8.640625 -13.421875 9.707031 -13.070312 10.5 -12.375 C 11.300781 -11.675781 11.703125 -10.65625 11.703125 -9.3125 C 11.703125 -8.300781 11.457031 -7.472656 10.96875 -6.828125 C 10.476562 -6.191406 9.769531 -5.765625 8.84375 -5.546875 Z M 3.1875 -12.25 L 3.1875 -6.53125 L 7.40625 -6.53125 C 9.414062 -6.53125 10.421875 -7.445312 10.421875 -9.28125 C 10.421875 -10.195312 10.171875 -10.921875 9.671875 -11.453125 C 9.171875 -11.984375 8.414062 -12.25 7.40625 -12.25 Z M 3.1875 -12.25 "/></g></g></g><g fill="#1d1d1f" fill-opacity="1"><g transform="translate(198.997971, 354.381138)"><g/></g></g><g fill="#1d1d1f" fill-opacity="1"><g transform="translate(203.452187, 354.381138)"><g><path d="M 1.90625 0 L 1.90625 -13.421875 L 10.546875 -13.421875 L 10.546875 -12.25 L 3.1875 -12.25 L 3.1875 -7.296875 L 9.609375 -7.296875 L 9.609375 -6.125 L 3.1875 -6.125 L 3.1875 -1.171875 L 10.546875 -1.171875 L 10.546875 0 Z M 1.90625 0 "/></g></g></g><g fill="#1d1d1f" fill-opacity="1"><g transform="translate(214.908676, 354.381138)"><g><path d="M 0.3125 0 L 4.3125 -5.015625 L 0.3125 -9.953125 L 1.8125 -9.953125 L 5.0625 -5.890625 L 8.25 -9.953125 L 9.75 -9.953125 L 5.734375 -5.015625 L 9.75 0 L 8.25 0 L 5.0625 -4.140625 L 1.8125 0 Z M 0.3125 0 "/></g></g></g><g fill="#1d1d1f" fill-opacity="1"><g transform="translate(224.964713, 354.381138)"><g><path d="M 5.484375 0.21875 C 4.585938 0.21875 3.796875 0.0195312 3.109375 -0.375 C 2.421875 -0.769531 1.882812 -1.351562 1.5 -2.125 C 1.113281 -2.894531 0.921875 -3.832031 0.921875 -4.9375 C 0.921875 -6.070312 1.113281 -7.023438 1.5 -7.796875 C 1.882812 -8.566406 2.421875 -9.148438 3.109375 -9.546875 C 3.796875 -9.953125 4.585938 -10.15625 5.484375 -10.15625 C 6.660156 -10.15625 7.644531 -9.8125 8.4375 -9.125 C 9.226562 -8.445312 9.671875 -7.492188 9.765625 -6.265625 L 8.625 -6.265625 C 8.582031 -7.171875 8.273438 -7.867188 7.703125 -8.359375 C 7.128906 -8.859375 6.394531 -9.109375 5.5 -9.109375 C 4.46875 -9.109375 3.640625 -8.757812 3.015625 -8.0625 C 2.390625 -7.363281 2.078125 -6.320312 2.078125 -4.9375 C 2.078125 -3.59375 2.390625 -2.566406 3.015625 -1.859375 C 3.640625 -1.160156 4.46875 -0.8125 5.5 -0.8125 C 6.382812 -0.8125 7.109375 -1.054688 7.671875 -1.546875 C 8.234375 -2.035156 8.539062 -2.710938 8.59375 -3.578125 L 9.75 -3.578125 C 9.65625 -2.390625 9.210938 -1.457031 8.421875 -0.78125 C 7.628906 -0.113281 6.648438 0.21875 5.484375 0.21875 Z M 5.484375 0.21875 "/></g></g></g><g fill="#1d1d1f" fill-opacity="1"><g transform="translate(235.584819, 354.381138)"><g><path d="M 9.6875 -5.078125 C 9.6875 -4.929688 9.6875 -4.816406 9.6875 -4.734375 C 9.6875 -4.648438 9.679688 -4.5625 9.671875 -4.46875 L 2.09375 -4.46875 C 2.164062 -3.78125 2.316406 -3.164062 2.546875 -2.625 C 2.785156 -2.082031 3.132812 -1.648438 3.59375 -1.328125 C 4.050781 -1.015625 4.628906 -0.859375 5.328125 -0.859375 C 6.171875 -0.859375 6.859375 -1.070312 7.390625 -1.5 C 7.921875 -1.9375 8.242188 -2.554688 8.359375 -3.359375 L 9.53125 -3.359375 C 9.414062 -2.535156 9.148438 -1.863281 8.734375 -1.34375 C 8.328125 -0.820312 7.828125 -0.4375 7.234375 -0.1875 C 6.648438 0.0625 6.015625 0.1875 5.328125 0.1875 C 4.535156 0.1875 3.859375 0.0390625 3.296875 -0.25 C 2.734375 -0.539062 2.273438 -0.929688 1.921875 -1.421875 C 1.578125 -1.921875 1.320312 -2.476562 1.15625 -3.09375 C 1 -3.71875 0.921875 -4.359375 0.921875 -5.015625 C 0.921875 -5.640625 0.992188 -6.253906 1.140625 -6.859375 C 1.285156 -7.460938 1.53125 -8.015625 1.875 -8.515625 C 2.21875 -9.015625 2.671875 -9.410156 3.234375 -9.703125 C 3.796875 -10.003906 4.492188 -10.15625 5.328125 -10.15625 C 6.222656 -10.15625 6.953125 -9.988281 7.515625 -9.65625 C 8.078125 -9.320312 8.515625 -8.894531 8.828125 -8.375 C 9.148438 -7.851562 9.375 -7.296875 9.5 -6.703125 C 9.625 -6.117188 9.6875 -5.578125 9.6875 -5.078125 Z M 5.328125 -9.109375 C 4.523438 -9.109375 3.890625 -8.921875 3.421875 -8.546875 C 2.953125 -8.179688 2.617188 -7.722656 2.421875 -7.171875 C 2.222656 -6.617188 2.109375 -6.070312 2.078125 -5.53125 L 8.5 -5.53125 C 8.4375 -6.601562 8.148438 -7.46875 7.640625 -8.125 C 7.140625 -8.78125 6.367188 -9.109375 5.328125 -9.109375 Z M 5.328125 -9.109375 "/></g></g></g><g fill="#1d1d1f" fill-opacity="1"><g transform="translate(246.185471, 354.381138)"><g><path d="M 1.53125 0 L 1.53125 -13.421875 L 2.703125 -13.421875 L 2.703125 0 Z M 1.53125 0 "/></g></g></g><g fill="#1d1d1f" fill-opacity="1"><g transform="translate(250.425734, 354.381138)"><g><path d="M 1.53125 0 L 1.53125 -13.421875 L 2.703125 -13.421875 L 2.703125 0 Z M 1.53125 0 "/></g></g></g><g fill="#1d1d1f" fill-opacity="1"><g transform="translate(254.665998, 354.381138)"><g><path d="M 9.6875 -5.078125 C 9.6875 -4.929688 9.6875 -4.816406 9.6875 -4.734375 C 9.6875 -4.648438 9.679688 -4.5625 9.671875 -4.46875 L 2.09375 -4.46875 C 2.164062 -3.78125 2.316406 -3.164062 2.546875 -2.625 C 2.785156 -2.082031 3.132812 -1.648438 3.59375 -1.328125 C 4.050781 -1.015625 4.628906 -0.859375 5.328125 -0.859375 C 6.171875 -0.859375 6.859375 -1.070312 7.390625 -1.5 C 7.921875 -1.9375 8.242188 -2.554688 8.359375 -3.359375 L 9.53125 -3.359375 C 9.414062 -2.535156 9.148438 -1.863281 8.734375 -1.34375 C 8.328125 -0.820312 7.828125 -0.4375 7.234375 -0.1875 C 6.648438 0.0625 6.015625 0.1875 5.328125 0.1875 C 4.535156 0.1875 3.859375 0.0390625 3.296875 -0.25 C 2.734375 -0.539062 2.273438 -0.929688 1.921875 -1.421875 C 1.578125 -1.921875 1.320312 -2.476562 1.15625 -3.09375 C 1 -3.71875 0.921875 -4.359375 0.921875 -5.015625 C 0.921875 -5.640625 0.992188 -6.253906 1.140625 -6.859375 C 1.285156 -7.460938 1.53125 -8.015625 1.875 -8.515625 C 2.21875 -9.015625 2.671875 -9.410156 3.234375 -9.703125 C 3.796875 -10.003906 4.492188 -10.15625 5.328125 -10.15625 C 6.222656 -10.15625 6.953125 -9.988281 7.515625 -9.65625 C 8.078125 -9.320312 8.515625 -8.894531 8.828125 -8.375 C 9.148438 -7.851562 9.375 -7.296875 9.5 -6.703125 C 9.625 -6.117188 9.6875 -5.578125 9.6875 -5.078125 Z M 5.328125 -9.109375 C 4.523438 -9.109375 3.890625 -8.921875 3.421875 -8.546875 C 2.953125 -8.179688 2.617188 -7.722656 2.421875 -7.171875 C 2.222656 -6.617188 2.109375 -6.070312 2.078125 -5.53125 L 8.5 -5.53125 C 8.4375 -6.601562 8.148438 -7.46875 7.640625 -8.125 C 7.140625 -8.78125 6.367188 -9.109375 5.328125 -9.109375 Z M 5.328125 -9.109375 "/></g></g></g><g fill="#1d1d1f" fill-opacity="1"><g transform="translate(265.26665, 354.381138)"><g><path d="M 1.40625 0 L 1.40625 -9.953125 L 2.5625 -9.953125 L 2.5625 -8.578125 C 2.863281 -9.097656 3.28125 -9.488281 3.8125 -9.75 C 4.351562 -10.019531 4.925781 -10.15625 5.53125 -10.15625 C 6.5625 -10.15625 7.363281 -9.820312 7.9375 -9.15625 C 8.519531 -8.488281 8.8125 -7.585938 8.8125 -6.453125 L 8.8125 0 L 7.640625 0 L 7.640625 -6.34375 C 7.640625 -7.300781 7.445312 -8 7.0625 -8.4375 C 6.6875 -8.882812 6.164062 -9.109375 5.5 -9.109375 C 4.9375 -9.109375 4.429688 -8.96875 3.984375 -8.6875 C 3.535156 -8.40625 3.179688 -8.019531 2.921875 -7.53125 C 2.671875 -7.050781 2.546875 -6.492188 2.546875 -5.859375 L 2.546875 0 Z M 1.40625 0 "/></g></g></g><g fill="#1d1d1f" fill-opacity="1"><g transform="translate(275.439384, 354.381138)"><g><path d="M 5.484375 0.21875 C 4.585938 0.21875 3.796875 0.0195312 3.109375 -0.375 C 2.421875 -0.769531 1.882812 -1.351562 1.5 -2.125 C 1.113281 -2.894531 0.921875 -3.832031 0.921875 -4.9375 C 0.921875 -6.070312 1.113281 -7.023438 1.5 -7.796875 C 1.882812 -8.566406 2.421875 -9.148438 3.109375 -9.546875 C 3.796875 -9.953125 4.585938 -10.15625 5.484375 -10.15625 C 6.660156 -10.15625 7.644531 -9.8125 8.4375 -9.125 C 9.226562 -8.445312 9.671875 -7.492188 9.765625 -6.265625 L 8.625 -6.265625 C 8.582031 -7.171875 8.273438 -7.867188 7.703125 -8.359375 C 7.128906 -8.859375 6.394531 -9.109375 5.5 -9.109375 C 4.46875 -9.109375 3.640625 -8.757812 3.015625 -8.0625 C 2.390625 -7.363281 2.078125 -6.320312 2.078125 -4.9375 C 2.078125 -3.59375 2.390625 -2.566406 3.015625 -1.859375 C 3.640625 -1.160156 4.46875 -0.8125 5.5 -0.8125 C 6.382812 -0.8125 7.109375 -1.054688 7.671875 -1.546875 C 8.234375 -2.035156 8.539062 -2.710938 8.59375 -3.578125 L 9.75 -3.578125 C 9.65625 -2.390625 9.210938 -1.457031 8.421875 -0.78125 C 7.628906 -0.113281 6.648438 0.21875 5.484375 0.21875 Z M 5.484375 0.21875 "/></g></g></g><g fill="#1d1d1f" fill-opacity="1"><g transform="translate(286.05949, 354.381138)"><g><path d="M 9.6875 -5.078125 C 9.6875 -4.929688 9.6875 -4.816406 9.6875 -4.734375 C 9.6875 -4.648438 9.679688 -4.5625 9.671875 -4.46875 L 2.09375 -4.46875 C 2.164062 -3.78125 2.316406 -3.164062 2.546875 -2.625 C 2.785156 -2.082031 3.132812 -1.648438 3.59375 -1.328125 C 4.050781 -1.015625 4.628906 -0.859375 5.328125 -0.859375 C 6.171875 -0.859375 6.859375 -1.070312 7.390625 -1.5 C 7.921875 -1.9375 8.242188 -2.554688 8.359375 -3.359375 L 9.53125 -3.359375 C 9.414062 -2.535156 9.148438 -1.863281 8.734375 -1.34375 C 8.328125 -0.820312 7.828125 -0.4375 7.234375 -0.1875 C 6.648438 0.0625 6.015625 0.1875 5.328125 0.1875 C 4.535156 0.1875 3.859375 0.0390625 3.296875 -0.25 C 2.734375 -0.539062 2.273438 -0.929688 1.921875 -1.421875 C 1.578125 -1.921875 1.320312 -2.476562 1.15625 -3.09375 C 1 -3.71875 0.921875 -4.359375 0.921875 -5.015625 C 0.921875 -5.640625 0.992188 -6.253906 1.140625 -6.859375 C 1.285156 -7.460938 1.53125 -8.015625 1.875 -8.515625 C 2.21875 -9.015625 2.671875 -9.410156 3.234375 -9.703125 C 3.796875 -10.003906 4.492188 -10.15625 5.328125 -10.15625 C 6.222656 -10.15625 6.953125 -9.988281 7.515625 -9.65625 C 8.078125 -9.320312 8.515625 -8.894531 8.828125 -8.375 C 9.148438 -7.851562 9.375 -7.296875 9.5 -6.703125 C 9.625 -6.117188 9.6875 -5.578125 9.6875 -5.078125 Z M 5.328125 -9.109375 C 4.523438 -9.109375 3.890625 -8.921875 3.421875 -8.546875 C 2.953125 -8.179688 2.617188 -7.722656 2.421875 -7.171875 C 2.222656 -6.617188 2.109375 -6.070312 2.078125 -5.53125 L 8.5 -5.53125 C 8.4375 -6.601562 8.148438 -7.46875 7.640625 -8.125 C 7.140625 -8.78125 6.367188 -9.109375 5.328125 -9.109375 Z M 5.328125 -9.109375 "/></g></g></g>
</svg>